<svg width="60" height="60" viewBox="0 0 60 60" fill="none" xmlns="http://www.w3.org/2000/svg">
  <!-- Outer circle container -->
  <circle cx="30" cy="30" r="29" fill="#0A0A0A" stroke="#1A1A1A" stroke-width="1"/>
  
  <!-- Neural network dots -->
  <circle cx="20" cy="22" r="1" fill="#00D4FF" opacity="0.6"/>
  <circle cx="40" cy="25" r="1" fill="#00D4FF" opacity="0.4"/>
  <circle cx="35" cy="40" r="1" fill="#00D4FF" opacity="0.5"/>
  
  <!-- Chat bubble base -->
  <path d="M18 20 C18 16, 22 12, 30 12 C38 12, 42 16, 42 20 L42 32 C42 36, 38 40, 30 40 L25 40 L20 44 L20 40 C18 40, 18 36, 18 32 Z" fill="none" stroke="#00D4FF" stroke-width="1.5" stroke-linecap="round" stroke-linejoin="round"/>
  
  <!-- Y7 symbol -->
  <!-- Y letter -->
  <path d="M23 18 L26.5 25 L30 18" stroke="#FFFFFF" stroke-width="1.8" stroke-linecap="round" stroke-linejoin="round"/>
  <path d="M26.5 25 L26.5 32" stroke="#FFFFFF" stroke-width="1.8" stroke-linecap="round"/>
  
  <!-- 7 number -->
  <path d="M32 18 L37 18 L34 32" stroke="#00D4FF" stroke-width="1.8" stroke-linecap="round" stroke-linejoin="round"/>
  
  <!-- Thinking indicator -->
  <path d="M24 30 Q27 28, 30 30 Q33 32, 36 30" stroke="#00D4FF" stroke-width="1" fill="none" stroke-linecap="round" opacity="0.7"/>
</svg>